<?xml version="1.0" encoding="utf-8"?>
<!-- Generator: Adobe Illustrator 21.1.0, SVG Export Plug-In . SVG Version: 6.00 Build 0)  -->
<svg version="1.1" xmlns="http://www.w3.org/2000/svg" xmlns:xlink="http://www.w3.org/1999/xlink" x="0px" y="0px"
	 viewBox="0 0 192 68" style="enable-background:new 0 0 192 68;" xml:space="preserve">
<style type="text/css">
	.st0{fill:#FFFFFF;}
	.st1{fill:#EB0029;}
</style>
<g id="CLEAR_SPACE">
</g>
<g id="ARTWORK">
	<g>
		<g>
			<path class="st0" d="M192,33.9c0.1-12.8-2.7-20-5.1-23.5c0.8-1.1,1.3-1.8,1.4-1.8c0.2-0.2,0.7-0.6,1.5-0.8
				c0.2-1.7,0.9-3.7,0.9-3.7s-1.7,1.2-3.3,1.9c0.1,0.9-0.1,1.4-0.3,1.7c0,0-0.4,0.6-1.1,1.4c-1.1-1.2-2.3-2.4-4.1-3.4
				c-0.4-0.2-0.9-0.5-1.4-0.7c0-0.7-0.2-1.3-0.7-1.8c0-0.4-0.4-0.9-0.8-1l0,0c-0.4-0.1-1,0.1-1.4,0.4c-0.7,0.1-1.3,0.5-1.8,1
				c-1.5-0.3-3.2-0.6-5.1-0.7c-0.2-0.9-0.8-1.6-1.6-2c-0.2-0.4-0.8-0.8-1.3-0.9l0,0h0c0,0,0,0,0,0s0,0,0,0c-0.5,0-1.1,0.4-1.3,0.9
				c-0.8,0.4-1.4,1.1-1.6,2c-1.9,0.1-3.6,0.4-5.1,0.7c-0.5-0.5-1.1-0.9-1.8-1c-0.3-0.3-0.9-0.5-1.3-0.4l0,0c-0.4,0.2-0.7,0.6-0.8,1
				c-0.5,0.5-0.7,1.1-0.7,1.8c-0.5,0.2-1,0.5-1.4,0.7c-1.8,1.1-3,2-4.1,3.4c-0.6-0.8-0.9-1.3-1-1.3c-0.2-0.3-0.4-0.8-0.3-1.7
				c-1.6-0.7-3.3-1.9-3.3-1.9s0.6,2,0.9,3.7c0.9,0.1,1.3,0.5,1.5,0.8c0,0,0.5,0.6,1.2,1.6c-2.4,3.5-5.3,10.7-5.2,23.6
				c0,1.2-0.5,12.4,3.1,19.9c0.4,0.8,1.5,2.8,3.5,4.7c1.6,1.6,3.6,2.6,5.8,3.2c0.1,0,0.2,0.1,0.3,0.1c2.7,0.7,5.1,0.3,6-0.2
				l-0.1,0.3c0,0.1-0.1,0.2-0.1,0.3c-0.5,1.4-0.2,2.8,1.7,3c0.5,0.1,1,0.1,1.7,0.4c0.5,0.2,1,0.6,1.5,1.1c0.2,0.2,0.7,0.9,1,1.3l0,0
				l0,0v0c0.2-0.5,0.7-1.1,1-1.3c0.6-0.6,1.1-0.9,1.5-1.1c0.6-0.3,1.2-0.3,1.7-0.4c1.9-0.2,2.2-1.6,1.7-3c0-0.1-0.1-0.2-0.1-0.3
				c0-0.1-0.1-0.3-0.1-0.3c1.3,0.8,5.3,1.3,9.1-1.1c2.6-1.7,4.5-3.5,6.1-6.6C192.5,46.3,192,34.9,192,33.9z M175.1,23.6
				c-0.1,0.1-0.1,0.1-0.3,0.3c-0.2,0.1-0.4,0.2-0.6,0.1c-0.3,0-0.5-0.1-0.6-0.3c-0.4-0.6-0.7-1.2-1.2-2.3c-0.4-0.9-0.3-0.8-0.9-2.2
				c-0.3-0.7-0.8-1.8-1.1-2.1c-0.4-0.6-1.2-1.2-1.5-1.3c-0.3-0.1-0.8-0.3-1.4-0.3c-0.9-0.1-1.9,0.1-2.2,0.2
				c-0.3,0.1-0.8,0.3-1.1,0.6c0,0-0.2,0.2-0.3,0.3c-0.4,0.2-0.5,0.2-1,0.6c-0.8,0.6-0.7,1.6-0.3,2c0,0,0,0,0,0c0-0.2,0-0.5,0.1-0.5
				c0,0,0.5,0.3,1.1,0.2c0.5-0.1,0.8,0.6,0.8,0.6l0.1-0.2c0,0,0.1,0.4,0.3,0.5c0,0,0.1-0.1,0.1-0.1c0.1,0.2,0.4,0.3,0.4,0.6
				c0,0.3-0.1,0.5-0.4,0.8c-0.1,0.1-0.9,0.7-1.7,1.5c-0.4,0.4-0.6,0.7-1,1.1c-0.2,0.2-0.4,0.4-0.6,0.4c0,0-0.1,0-0.1,0
				c-0.2,0-0.4-0.1-0.5-0.2c-0.1-0.1-4.1-5.4-6-7.9c3.5-3.4,9.2-3.9,10.7-3.8c0.3,0,0.7,0.3,0.3,0.8c0.3,0.1,1.5,0,1.9-0.4
				c0.4,0.4,1.6,0.5,1.9,0.4c-0.4-0.6,0-0.8,0.3-0.8c1.4-0.1,6.9,0.2,10.7,3.9C178.9,18.5,176.4,21.6,175.1,23.6z"/>
			<g>
				<path class="st1" d="M191.2,30.4c-1.1,0.9-2.1,1.7-5.4,3.7l-0.9,0.5l0-0.6c0-0.1,0.2-8.5-3.9-15.8c-0.3,0.3-1.1,1.4-2,2.6
					c0.5-0.1,1.1,0.1,1.5,0.6c0.9,0.8,2.2,2.8,3,4.9c0.4,1.3,0.8,3.1,0.7,4.6l0,0c0,0-0.5,8.6-1.5,16.9c-0.9,7.5-1.4,8.5-1.4,8.5
					c-0.6-0.7-0.8-1.6-0.9-2.1l-0.1,0.1c0,0-0.5-0.8-0.8-2.2c-0.4-1.7-0.4-4.7-0.4-6.1l0,0c0,0,0-0.4-0.3-1.2
					c-0.2-0.3-0.3-0.7-0.4-1c0,0,0,0,0,0c-0.5-2.3-1.6-3-2.2-3.7c-0.7-0.9-1.2-1.8-1.5-2.5c0,0,0,0-0.1,0c-0.4,0.4-0.7,0.7-0.7,0.9
					c0.1,1.3,0.3,2.3,0.1,3c-0.1,0-0.2-0.2-0.3-0.2c0.1,0.9-0.3,1.9-0.1,2.7l-0.5-0.1c0,0.1,0,0.1,0.1,0.1c0.1,0.1,0.1,0.2,0.3,0.2
					c0,0,0.1,0.1,0.2,0.1c0,0,0.2,0.1,0.5,0.2c0.3-0.7,0.1-1.3-0.2-1.7c-0.3-0.3,0.1-0.7,0.6-0.5c0.7,0.3,1.4,0.7,2.2,1.4
					c1.1,1,1.4,2.1,1.2,2.3c-0.2,0.2-0.3,0.1-0.5,0c0,0,0,0.1,0,0.1c-0.1,0.2-0.2,0.3-0.5,0.4l0,0c-0.1,0.2-0.3,0.2-0.6,0.2
					c-0.3,0-0.6-0.2-0.6-0.2c-0.1,0-0.1-0.1-0.2-0.2c-0.1,0-0.1,0.1-0.2,0.2c0.9,1.2,2.5,3.1,3.7,5.2c0.9,1.5,1.2,2.8,1.2,2.8
					s-0.5,0.1-1.1,0c0.2,0.6,0.3,1.1,0.3,1.6c-0.5,0-1.1,0-1.7-0.4c0,0.1,0,0.2,0.1,0.3c0.5,0.4,1.1,0.8,1.4,1
					c-2.6,1.2-6.4,0.7-6.5,0.7c-0.2,0-0.3,0-0.5-0.1c0,0.1-0.1,0.2-0.1,0.2c0.3,0.6,0.8,2,1,2.3c1.7,0.8,3.2,1.3,5.6,0.9
					c0,0,0.4,0,1.4-0.4c1-0.3,3-1.5,4.5-2.9c1.9-1.8,3-3.6,3.4-4.3c2.9-5.6,3.4-14,3.4-17.4c0-1.1,0-1.7,0-1.8
					C191.3,33.1,191.2,31.3,191.2,30.4z"/>
				<path class="st1" d="M163,60.1c0.1-0.3,0.6-1.6,0.9-2.2c0-0.1-0.1-0.2-0.1-0.3c-0.4,0.1-0.7,0.1-1.1,0.2c-0.2,0-3.8,0.6-6.5-0.6
					c0.3-0.2,0.9-0.7,1.7-1.2c0-0.1,0-0.1,0-0.2c-0.6,0.4-1.2,0.4-1.7,0.4c0-0.4,0.1-0.9,0.3-1.6c-0.6,0.1-1.1,0-1.1,0
					s0.4-1.3,1.2-2.8c0.8-1.4,1.9-2.9,2.9-4c0.1-0.5,0.5-0.9,0.5-0.9c0,0,0.1-0.1,0.2-0.2c-0.1-0.1-0.2-0.2-0.3-0.3
					c-0.1,0.1-0.2,0.2-0.3,0.2c-0.3,0.1-0.5,0.2-0.6,0.2c-0.3,0-0.5-0.1-0.6-0.2l0,0c-0.2-0.1-0.4-0.2-0.5-0.4c0,0,0-0.1,0-0.1
					c-0.2,0.1-0.3,0.1-0.5-0.1c-0.2-0.2,0.1-1.2,1.2-2.3c0.8-0.7,1.5-1.2,2.2-1.4c0.5-0.2,0.8,0.2,0.6,0.5c-0.3,0.4-0.5,1-0.2,1.7
					c0.3-0.1,0.4-0.2,0.5-0.2c0.1,0,0.3-0.1,0.4-0.3c0,0,0-0.1,0.1-0.1l-0.5,0.1c0.2-0.6-0.1-2,0.1-2.9c-0.1,0-0.2,0.2-0.3,0.2
					c-0.2-0.8-0.1-2.2-0.1-2.8c0-0.2-0.2-0.5-0.6-0.8c-0.3,0.7-0.7,1.5-1.5,2.4c-0.6,0.7-1.6,1.4-2.2,3.7c0,0,0,0,0,0
					c-0.1,0.4-0.2,0.7-0.4,1c-0.4,0.7-0.3,1.2-0.3,1.2l0,0c0,1.5,0,4.5-0.4,6.1c-0.3,1.5-0.8,2.2-0.8,2.2l-0.1-0.1
					c-0.1,0.5-0.4,1.4-0.9,2.1c0,0-0.5-1-1.4-8.5c-1-8.3-1.5-16.9-1.5-16.9l0,0c-0.1-1.5,0.3-3.3,0.7-4.6c0.8-2.1,2.2-4.1,3-4.9
					c0.5-0.5,1.1-0.6,1.7-0.5c-0.2-0.2-0.3-0.5-0.3-0.5c-0.6-0.8-1.2-1.6-1.8-2.3c-4,7.1-3.9,15.6-3.9,15.6l0,0.9l-0.7-0.4
					c-3.2-1.8-4.5-2.9-5.6-3.7c0,0.9-0.1,3.8-0.1,3.8c0,0.1,0,0.7,0,1.8c0,3.4,0.6,11.7,3.4,17.4c0.4,0.7,1.4,2.6,3.3,4.4
					c1.4,1.3,3.1,2.3,4.9,2.9c0.1,0,0.3,0.1,0.4,0.1C158.4,61.4,160.7,61.3,163,60.1L163,60.1z"/>
				<path class="st1" d="M164.7,62.2c0-1,0.2-2.5,0.4-3.8c-0.3,0.3-0.6,0.5-0.6,0.5c0,0-0.1-0.1-0.2-0.1c-0.6,1.5-1.5,3.7-1.5,3.7
					C163.3,62.1,163.9,61.9,164.7,62.2z"/>
				<path class="st1" d="M170.9,63.2c0-1-0.4-3.9-0.6-5.5c0,0-0.1-0.1-0.1-0.1c-0.1-0.1-0.1-0.1-0.2-0.2c-0.1,0.3-0.2,0.7-0.4,1
					c-0.2,0.4-0.5,0.8-0.5,0.8c0,0-0.8-0.5-1.3-1.6c-0.5,1-1.2,1.6-1.3,1.6c-0.1,0-0.3-0.4-0.5-0.8c-0.1-0.2-0.2-0.4-0.2-0.5
					c-0.3,1.7-0.6,4.4-0.6,5.4c-1.6-1-2.5,0-2.2,0.7c0,0.1,0.1,0.1,0.1,0.2c0.2,0.3,0.4,0.4,0.8,0.4c0.5,0,1.2,0.1,1.9,0.4
					c0.7,0.3,1.4,0.9,2.2,1.8c0.8-0.9,1.5-1.5,2.2-1.8c0.8-0.4,1.4-0.4,1.9-0.4c0.3,0,0.6-0.2,0.8-0.4c0,0,0.1-0.1,0.1-0.2
					C173.4,63.2,172.4,62.2,170.9,63.2z"/>
				<path class="st1" d="M171.4,58.9c0,0-0.2-0.1-0.5-0.4c0.2,1.2,0.4,2.6,0.5,3.7c0.8-0.3,1.5-0.1,1.9,0.3c0,0-1-2.5-1.5-3.9
					C171.6,58.7,171.4,58.9,171.4,58.9z"/>
			</g>
			<g>
				<path d="M165.5,27.6L165.5,27.6C165.5,27.6,165.5,27.6,165.5,27.6"/>
			</g>
			<g>
				<polyline points="164.6,28 164.6,28 164.6,28 				"/>
			</g>
			<path d="M178.7,32.2c-0.1,0.6-0.3,0.8-0.8,1.1c-0.3-0.8-0.4-1.5,0.8-3.9c-0.8,2.4-0.5,3.2-0.5,3.2S178.6,32.4,178.7,32.2z
				 M177.5,30.5c0,0-0.3-0.5,0.4-2.6c-1.3,2-0.7,3.4-0.7,3.4s0.7-0.3,0.9-1.1C177.8,30.4,177.5,30.5,177.5,30.5z M182.2,26.9
				c-0.2,2.1-0.4,2.5-0.6,2.9c-0.2-0.1-0.3-0.6-0.3-0.6c-0.1,0.4,0,1,0.4,1.3C182,30,182.3,28.8,182.2,26.9z M181.7,25.5
				c-0.3,2.4-0.7,2.9-1,3.3c-0.2-0.1-0.4-0.7-0.4-0.7c-0.1,0.4,0,1.1,0.3,1.4C181.3,28.9,181.8,27.7,181.7,25.5z M180,27.8
				c-0.2-0.6-0.2-1.3-0.2-1.3c-0.3,0.9-0.2,1.7,0.1,2.1c0.5-0.6,1.3-2.3,1.2-3.9C180.8,26.6,180.3,27.4,180,27.8z M179.1,26.5
				c-0.2-0.7-0.1-1.7-0.1-1.7c-0.4,0.9-0.4,2.1-0.1,2.5c0.6-0.5,1.4-2,1.5-3.7C180,25.6,179.5,26.1,179.1,26.5z M182,30.4
				c0,0.5,0.4,0.8,0.4,0.8s0.7-1,0.4-2.7c-0.1,1.6-0.5,2.1-0.5,2.1S182,30.6,182,30.4z M182.8,31.2c0,0.4,0.4,0.7,0.4,0.7
				s0.6-0.9,0.3-2.4c-0.1,1.4-0.4,1.9-0.4,1.9S182.8,31.3,182.8,31.2z M154.1,29.9c-0.2-0.4-0.4-0.8-0.6-2.9
				c-0.1,1.9,0.2,3.1,0.6,3.6c0.3-0.3,0.4-0.9,0.4-1.3C154.5,29.3,154.3,29.8,154.1,29.9z M154.9,28.9c-0.3-0.4-0.6-0.9-1-3.3
				c-0.1,2.1,0.5,3.4,1,4c0.3-0.4,0.4-1,0.3-1.4C155.3,28.2,155.1,28.7,154.9,28.9z M155.7,27.9c-0.3-0.4-0.8-1.2-1.2-3.2
				c-0.1,1.6,0.7,3.4,1.2,3.9c0.3-0.4,0.4-1.1,0.1-2.1C155.9,26.6,155.9,27.2,155.7,27.9z M156.5,26.5c-0.3-0.4-0.8-0.9-1.3-2.8
				c0.1,1.6,0.9,3.1,1.5,3.7c0.3-0.4,0.3-1.6-0.1-2.5C156.6,24.9,156.7,25.9,156.5,26.5z M153.4,30.8c0,0-0.4-0.5-0.5-2.1
				c-0.3,1.7,0.4,2.7,0.4,2.7s0.4-0.3,0.4-0.8C153.6,30.6,153.4,30.8,153.4,30.8z M152.6,31.5c0,0-0.3-0.5-0.4-1.9
				c-0.3,1.5,0.3,2.4,0.3,2.4s0.4-0.3,0.4-0.7C152.8,31.3,152.6,31.5,152.6,31.5z M157.4,32.6c0,0-0.3-0.1-0.5-0.4
				c0.1,0.6,0.3,0.8,0.8,1.1c0.3-0.8,0.4-1.5-0.8-3.9C157.8,31.8,157.4,32.6,157.4,32.6z M158.2,30.5c0,0-0.4-0.1-0.6-0.3
				c0.2,0.7,0.9,1.1,0.9,1.1s0.6-1.4-0.7-3.4C158.5,30,158.2,30.5,158.2,30.5z M164.1,40.7c0.1-1.1-0.5-2-0.6-2.5
				c-0.1,0.1-0.1,0.5-0.1,0.5c-0.4-0.4-0.5-1.1-0.6-1.4c-0.1,0.7-0.4,1.1-0.4,1.5c0.2,0,0.3-0.1,0.5-0.2
				C163.1,39.5,163.9,39.7,164.1,40.7z M172,38.8c0,0,0-0.4-0.1-0.5c-0.1,0.4-0.7,1.4-0.5,2.5c0.3-1,1-1.2,1.2-2.1
				c0.2,0.1,0.3,0.2,0.5,0.2c-0.1-0.4-0.4-0.7-0.4-1.5C172.5,37.6,172.4,38.4,172,38.8z M166.2,37.7c-0.1-0.4-0.3-1.6-0.8-2.1
				C165.2,36.5,165.8,37.3,166.2,37.7z M169.1,38.9c0.2-0.5,0.7-1,0.6-2.6C169.3,36.8,169.1,38.3,169.1,38.9z M168.2,39.5
				c0.2-0.6,0.2-1.5,0-1.8C167.9,38.4,167.9,39,168.2,39.5z M167.5,37.6c0.2-0.7,0.2-1.6-0.1-2C167.1,36.3,167.1,37,167.5,37.6z
				 M172.6,31c-0.4,0.6-0.6,2-0.7,2.4C172.1,33.3,172.9,31.3,172.6,31z M172.7,28.8c0,0,0.7-1.3,0.3-2
				C172.5,26.9,172.7,28.8,172.7,28.8z M170.5,31.9c0,0,1.2-1.1,1.1-2.5c-0.3,0.9-1.1,1.3-1.1,1.3c0,0-0.4-0.3-0.6-0.9
				C169.7,31.3,170.5,31.9,170.5,31.9z M172.8,30.3c0.3-0.5,0.7-1.2,0.4-1.7C173,29.1,173,29.7,172.8,30.3z M169.2,35.8
				c0.2-0.5,0.7-1.3,0.6-2.3C169.4,33.8,169.2,35.2,169.2,35.8z M170.9,34.3c0.7-0.8,1.1-1.8,0.8-2.8C171,32.4,171,33.4,170.9,34.3z
				 M169.4,31.3c-0.2,0.7-0.5,1.1-1,1.6c-0.2-0.2-0.4-0.4-0.7-1c-0.1,1.1,0.5,1.8,0.9,2C168.8,33.8,169.5,32.7,169.4,31.3z
				 M166.4,34.2c-0.1,0-0.8-0.7-1-1.1c0.1,0.6,1,1.9,1.4,2.1c0.1-0.2,0.6-1.2,0.2-2.8C166.7,33.4,166.6,33.9,166.4,34.2z
				 M162.3,26.5c-0.1-0.6,0.6-1.1,0.4-2C162,25.3,162.1,26.1,162.3,26.5z M163.7,33.1c0.4,0.7,0.7,1,1,1.3c-0.5-0.7-0.9-2.1-1.3-2.5
				C163.3,32.1,163.5,32.8,163.7,33.1z M163.4,30.1c-0.3,1.1,0.9,2.2,0.9,2.2C164.2,32.4,164.2,31,163.4,30.1z M164.2,28
				c0,0.5,0,0.9-0.1,1.5c-0.3-0.1-0.5-0.3-0.7-0.5c0.2,0.6,1,1.4,1.1,1.6C164.6,29.6,164.6,28.6,164.2,28z M163.7,25
				c0.3-1.1,1-1.8,1.2-2.4C163.7,23.4,163.5,24.7,163.7,25z M162.7,30c-0.2-1-0.1-1.6-0.6-2.5C162,28.6,162.6,29.9,162.7,30z
				 M165.5,26.3c-0.8,1,0.4,2.1,0.4,2.2C165.9,28.4,166,26.6,165.5,26.3z M166.1,23.7c-1.1,0.9-0.6,1.6-0.4,2.1
				C165.9,24.9,166,24.7,166.1,23.7z M166.8,31.3c0.2-0.4,0.7-1.2,0.5-2.6c-0.1,1-0.7,1.5-0.7,1.5c0,0-0.4-0.2-0.7-0.8
				C165.9,30.6,166.4,31,166.8,31.3z M172.5,23.8c-0.1,0.6,0.7,2.1,0.7,2.2C173.2,25.9,173.7,24.7,172.5,23.8z M171,21.3
				c-0.1,0.5,0.8,1.4,0.8,1.4C171.8,22.7,171.9,21.6,171,21.3z M172.3,25.4c-0.3,1.2-0.8,1.7-0.8,1.7c0,0-0.4-0.3-0.8-0.8
				c0,1,0.8,1.9,0.8,1.9C171.5,28.2,172.6,27.4,172.3,25.4z M169.9,23.2c-0.5,0.5,0,1.5,0.2,2.4C170.3,25.1,170.6,23.7,169.9,23.2z
				 M170.3,21.8c0-0.4-0.1-1.2-1.1-1.3C169.1,21,169.9,21.3,170.3,21.8z M169.2,20c0.2,0.2,0.9,0.4,1.3,0.8
				C170.5,20.1,169.8,19.7,169.2,20z M168.2,22.8c-0.7,0.7-0.3,1.4-0.3,1.4C167.9,24.1,168.8,23.2,168.2,22.8z M169.2,29.9
				c0,0,0.9-0.8,1-2.5c-0.5,0.8-1,1.3-1,1.3c0,0-0.5-0.3-0.9-0.8C168.3,29,169.2,30,169.2,29.9z M167.9,25.3c-0.8,1.2,0,2.4,0,2.4
				C167.9,27.7,168.5,26.1,167.9,25.3z M168.2,17.1c0.2,0.2,0.9,0.5,1.3,0.9C169.4,17.3,168.9,17,168.2,17.1z M168.6,17.7
				c-0.4-0.5-0.9-0.6-1.2-0.7C167.7,17.4,168,17.8,168.6,17.7z M170,18.9c0-0.1-0.3-0.6-1-0.7c0.2,0.2,0.3,0.5,0.4,0.6
				c-0.1,0.1-0.5,0.1-0.6,0.1C168.9,19.1,169.4,19.1,170,18.9z M163.9,17.2c-0.1,0-0.1,0.2,0.1,0.2c0.2,0,0.2-0.2,0.2-0.2
				S163.9,17.2,163.9,17.2z M169.8,5.6c-0.2-0.2-0.4-0.3-0.6-0.4c-0.2,0.1-0.4,0.3-0.6,0.4c0.2,0.1,0.3,0.3,0.6,0.4
				C169.4,5.9,169.5,5.8,169.8,5.6z M166.1,16.7c0,0,0.1,0.1,0,0.4s-0.1,0.5-0.5,0.5c-0.4,0.1-0.7-0.1-0.8-0.5c0-0.1,0-0.2,0.1-0.3
				c-0.1,0-0.1,0.1-0.2,0.3c-0.1,0.1-0.2,0.1-0.4,0.2c0-0.2,0.2-0.6,0.5-0.7c0.4-0.2,1.8-0.2,2.8,0.3c-0.4-0.1-0.7,0-1-0.1
				C166.4,16.7,166.1,16.7,166.1,16.7z M166,16.7c0,0-0.4,0-0.4,0c0,0.1,0.2,0.2,0.3,0.2c0,0,0.1,0,0.1-0.1
				C166,16.8,166,16.8,166,16.7z M170.7,8.4c-2.8-0.2-8.2,0.1-10.9,0.9c0,0-0.3-0.7-0.5-0.9c-0.7-0.8-1,0.1-1,0.2
				c0.9,0.1,1.1,0.5,1.1,0.5c-0.2,0.4-0.4,0.5-0.9,0.9c-0.2,0.1-0.7,0.5-1.5,0.5c-1.7,0.1-1.2-1.7-0.2-2.4c-0.1,0.2-0.7,1.1-0.4,1.5
				c0.4,0.5,2,0.1,2.4-0.4C158.5,9,158.1,9,157.5,9c0-0.3,0.2-1,1-1.7c0.3,0.1,1.1,0.5,1.4,1.2c2.5-0.7,7-0.8,7.2-0.9
				c-0.1-0.4-0.2-2-0.2-2.1c0-0.3,0.2-0.4,0.3-0.5c0.2,0.3,0.4,0.5,0.8,0.6c-0.2,0.2-0.3,0.3-0.5,0.4c0,0.3,0.1,0.9,0.1,1.1
				c0.4-0.2,1-0.4,1.6-0.6c0.2-0.1,0.5-0.1,0.7-0.1c0.2,0,0.5,0.2,0.7,0.3c0.1,0.1,0.3,0.3,0.3,0.5C170.9,7.8,170.8,8.2,170.7,8.4z
				 M170.1,7.4c-0.3-0.6-1.6-0.1-2.5,0.3c0.5,0,0.9,0,1.4,0c0.2,0,0.7,0,1.1,0C170.2,7.6,170.2,7.5,170.1,7.4z M158.5,10.4
				c-0.2-0.1-0.3-0.1-0.5-0.2c-0.1,0.2-0.3,0.4-0.3,0.6c0.2,0.1,0.4,0.1,0.7,0.2c0.1-0.2,0.2-0.3,0.3-0.4c0.2,0.1,0.3,0.1,0.5,0.2
				c0.1-0.2,0.2-0.3,0.4-0.6c-0.3-0.1-0.4-0.1-0.7-0.2C158.6,10.1,158.6,10.3,158.5,10.4z M179.1,8.3c0.6,0,1.1,0.1,1.3-0.2
				c-0.3-0.1-0.7-0.2-0.8-0.4c0.1-0.1,0.4,0,0.5,0.1c0.1-0.1,0.1-0.1,0.2-0.2c-0.4-0.3-0.9-0.1-1,0.2c0.1,0.1,0.3,0.1,0.3,0.2
				C179.4,8.1,179.2,8.3,179.1,8.3z M178.7,9.3c-0.2,0.5-0.4,1-0.7,1.5c0.2,0.1,0.4-0.1,0.5-0.2c0.7-0.4,1.2-1.6,1.4-2.3
				c0,0-0.4,0.1-0.6,0.2C179,8.8,178.9,8.9,178.7,9.3z M173.6,9.6c0.2,0.2,0.3,0.3,0.5,0.5c0.3-0.1,0.4-0.2,0.7-0.3
				c-0.2-0.2-0.3-0.3-0.5-0.5C174,9.3,173.7,9.5,173.6,9.6z M178.2,9.1c-0.1,0.4-0.4,0.6-0.6,0.8c-1-0.4-3.1-0.9-4.2-1
				c-0.3,0.3-0.8,0.8-1.3,0.9c-0.7-0.1-1.2-0.3-1.7-0.5c0.3,0,0.4,0,0.6,0c0.7,0,1.3-0.2,1.8-0.5c-1-0.2-1.2-0.4-0.8-1.1
				c0.2-0.3,0.6-0.8,1.1-0.7c0.4,0.1,0.5,0.7,0.5,1.2c1.2,0.1,2.7,0.5,3.8,0.9c0.1-0.3-0.1-0.5-0.3-0.7c0.2-0.2,0.4-0.4,0.6-0.5
				C178.1,8,178.3,8.7,178.2,9.1z M172.6,7.6c0,0-0.2,0.1-0.3,0.3c0.1,0.1,0.3,0.2,0.5,0.2c0,0,0.1,0,0.1,0
				C173.2,7.8,172.9,7.5,172.6,7.6z M160.1,9.9c0.2,0.1,0.4,0.2,0.7,0.3c0.2-0.2,0.3-0.3,0.5-0.5c-0.3-0.1-0.4-0.2-0.7-0.3
				C160.4,9.6,160.2,9.8,160.1,9.9z M188.8,53.8c-1.5,3-3.5,4.9-6.1,6.6c-3.8,2.4-7.8,1.8-9.1,1.1c0,0,0.1,0.3,0.1,0.3
				c0,0.1,0.1,0.2,0.1,0.3c0.5,1.4,0.2,2.8-1.7,3c-0.5,0.1-1,0.1-1.7,0.4c-0.5,0.2-1,0.6-1.5,1.1c-0.2,0.2-0.7,0.9-1,1.3v0l0,0l0,0
				c-0.2-0.5-0.7-1.1-1-1.3c-0.6-0.6-1.1-0.9-1.5-1.1c-0.6-0.3-1.2-0.3-1.7-0.4c-1.9-0.2-2.2-1.6-1.7-3c0-0.1,0.1-0.2,0.1-0.3
				l0.1-0.3c-0.9,0.6-3.3,1-6,0.2c-0.1,0-0.2-0.1-0.3-0.1c-2.2-0.6-4.2-1.7-5.8-3.2c-2-1.9-3.1-3.9-3.5-4.7
				c-3.6-7.5-3.1-18.7-3.1-19.9c-0.1-12.9,2.7-20.1,5.2-23.6c-0.7-1-1.2-1.6-1.2-1.6c-0.2-0.2-0.7-0.6-1.5-0.8
				c-0.2-1.7-0.9-3.7-0.9-3.7s1.7,1.2,3.3,1.9c-0.1,0.8,0.1,1.4,0.3,1.7c0,0,0.4,0.5,1,1.3c1.1-1.4,2.2-2.3,4.1-3.4
				c0.4-0.2,0.9-0.5,1.4-0.7c0-0.7,0.2-1.3,0.7-1.8c0-0.4,0.4-0.9,0.8-1l0,0c0.4-0.1,1,0.1,1.3,0.4c0.7,0.1,1.3,0.5,1.8,1
				c1.5-0.3,3.2-0.6,5.1-0.7c0.2-0.9,0.8-1.6,1.6-2c0.2-0.4,0.8-0.8,1.3-0.9c0,0,0,0,0,0s0,0,0,0h0c0.5,0,1.1,0.4,1.3,0.9
				c0.8,0.4,1.4,1.1,1.6,2c1.9,0.1,3.6,0.4,5.1,0.7c0.5-0.5,1.1-0.9,1.8-1c0.3-0.3,0.9-0.5,1.4-0.4l0,0c0.4,0.1,0.7,0.6,0.8,1
				c0.5,0.5,0.7,1.1,0.7,1.8c0.5,0.2,1,0.5,1.4,0.7c1.8,1,3.1,2.2,4.1,3.4c0.6-0.9,1-1.4,1.1-1.4c0.2-0.3,0.4-0.8,0.3-1.7
				c1.6-0.7,3.3-1.9,3.3-1.9s-0.6,2-0.9,3.7c-0.9,0.1-1.3,0.5-1.5,0.8c0,0-0.5,0.7-1.4,1.8c2.4,3.5,5.3,10.7,5.1,23.5
				C192,34.9,192.5,46.3,188.8,53.8z M187.7,13.4c-1.5,0.3-2.5,0.3-3.1,0.3c-0.4,0.8-0.7,1.6-0.7,3.1c-0.6-0.2-1-0.4-1.3-0.7
				c-0.4,0.6-0.7,0.9-1.1,1.5c4,7.2,4,13.9,4.1,15.8c3.1-1.8,5.1-3.5,5.5-3.8C190.8,22.8,189.7,17.7,187.7,13.4z M181.3,33.5
				c-0.1,0.8-0.1,1.4,0.1,2.1c0.4-0.5,0.6-0.9,0.9-1.8c0,0.7,0.2,1.4,0.3,1.7c0.5-0.7,0.8-3.5,0.8-3.5s0,0.1,0.3,0.2
				c0.3-1,0.1-3.1-0.1-4.1c-0.4-1.7-1-3.8-3.1-6.3c-1.1-1.3-2-0.7-2.9,0.3c-1.5,1.6-1.8,2.3-3.5,2.6c0,0,0,0,0,0
				c-0.2,0,0,0.1,0.3,0.1c2.1,0,2.8-1.4,3.4-2.1c0.4-0.5,1-0.9,1.4-0.6c0.2,0.1,0.7,0.8,0.2,2.4c0-0.4-0.1-0.7-0.2-0.8
				c-0.3,1.1-0.6,2-1.1,2.7c-0.1-0.2-0.1-0.4-0.1-0.6c-0.2,1.3-1.4,2.7-1.6,4.7c-0.1-0.2-0.2-0.3-0.2-0.8c-0.9,1.7-1.8,4.7-1.3,6.2
				c0-1.5,0.9-3.7,1.4-4.4c-0.6,2-1.3,4.4-0.7,5.9c0-1.3,0.8-3.3,1.3-4.2c-0.9,3.2-1.2,4.9-0.3,6.1c-0.2-1.2,0.3-3,1-4.5
				c-0.4,2.5-1.1,4.7,0.1,5.8c-0.2-1.7,0.5-3.8,0.8-4.6c-0.4,2.4-0.7,4.8,0.1,6c0-0.8,0.2-1.7,0.3-2.5c0.2-1.1,0.5-2.1,0.5-2.1
				s-0.2,1.7-0.4,3.8c0,0.3,0,0.7,0,1c0,0.4,0,0.9,0.1,1.3c0.1,0.4,0.2,0.7,0.4,1c0.2-2.8,0.5-5.1,0.9-6.2c0,0-0.3,2.6-0.5,6.5
				c0,0.1,0,0.3,0,0.4c-0.3,5.7,0.5,7.5,0.7,8c0,0-0.1-0.1-0.1-0.8c0-0.6,0-0.6,0-1.3c0-0.2-0.5-1.2-0.4-2.6c0-0.8,0.1-1.7,0.2-2.5
				c0.1-0.7,0.1-1.5,0.2-2.2c0.1-0.6,0.1-1.2,0.2-1.9c0.1-0.9,0.3-1.8,0.5-2.7c0.1-0.7,0.1-0.1,0,0.1c-0.1,0.8-0.2,2.6-0.4,4.4
				c-0.1,1.4-0.4,4.1-0.3,5.4c0.1,1.1,0.4,1.6,0.4,1.8c-0.1,2.2,0.2,3.1,0.5,3.9c0,0,0.2-0.8,0.4-1.8c0,0.1-0.1,0.2-0.2,0.2
				c-0.3-0.7-0.4-2-0.2-3.3c0-0.2-0.3-0.5-0.3-1.6c0-1.6,0.3-3.2,0.5-4.9c0.1-0.5,0.1-1.1,0.2-1.6c0-0.3,0.1-0.6,0.1-1
				c0.1-0.5,0.2-1,0.3-1.5c0-0.1,0-0.2,0-0.2c0,0,0,0.4-0.1,0.9c-0.2,2.2-0.7,7.7-0.7,8.2c0,1.1,0.3,1.4,0.3,1.6
				c-0.1,0.8,0,2.2,0.1,2.6c0.1-0.3,0.2-0.9,0.2-0.9s0.3-2.3,0.7-5.5c0.1-0.5,0.1-1,0.2-1.5c0-0.5,0.1-0.9,0.1-1.4
				c0.1-0.6,0.1-1.1,0.2-1.7c0-0.2,0-0.5,0.1-0.7c0.1-1.5,0.3-3.2,0.4-4.7c0,0,0.2-2.4,0.2-3.2c-0.1-0.1-0.1-0.1-0.1-0.1
				s-0.3,3-1.1,4.1c-0.2-0.2-0.5-1.3-0.5-1.7c-0.2,0.6-0.9,1.4-0.9,1.4s-0.3-0.6-0.2-1.6c-0.2,0.4-0.5,0.6-0.8,0.8
				c-0.2-0.3-0.3-0.7-0.3-1.7c-0.1,0.2-0.4,0.4-0.7,0.6c-0.1-0.2-0.6-1.1,0.3-4.2c-0.4,2.9-0.2,3.3-0.1,3.5c0.2-0.1,0.3-0.2,0.4-0.3
				c0-0.5,0.1-1.2,0.3-2.1c-0.1,2.3,0,3,0.2,3.5C180.5,34.9,180.8,34.5,181.3,33.5z M174.1,34.5c0.2-3,0.7-4.8,1.2-6.4
				C173.7,29.8,173.9,33.9,174.1,34.5z M174.4,27.9c0.5-1.5,0.1-2.3-0.2-2.4C174.2,26.2,174.4,26.5,174.4,27.9z M175.7,29.2
				c0.4-1.4,0.6-2.2,0.6-3.4C176,26.2,175.7,27.7,175.7,29.2z M177.1,26.2c0.1-0.5,0.1-1.2,0.1-1.7c-0.2,0.5-0.5,1.6-0.4,2.6
				C176.8,26.9,177,26.6,177.1,26.2z M173.5,37.6C173.5,37.5,173.5,37.5,173.5,37.6C173.5,37.5,173.5,37.5,173.5,37.6
				C173.5,37.5,173.5,37.5,173.5,37.6c0.1-0.1,0.2-0.1,0.3,0c0.1,0,0.1,0.1,0.2,0.1c-0.1-0.3-0.1-0.7-0.2-1.1c0-0.4,0-0.9-0.2-1.4
				c0,0,0,0,0-0.1c-0.1,0.2-0.2,0.4-0.4,0.6c-0.2,0.3-0.5,0.6-0.5,1l0,0.1l-0.1-0.1c0.1,0.1-0.3-0.4-0.3-0.4
				c-0.2,0.7-1.3,2.1-1.6,2.4v0c0,0-0.5,0.7-0.6,2.3c-0.2,1.5,0,2.4,0,2.4l0.4-0.4c0,0,0,0.4,0,0.9c0,0.4-0.2,0.7-0.2,0.7
				s0.8,0.1,1.4-0.6l0.1,0.3c0.1,0.3,0.2,0.6-0.1,0.8c0,0-0.4,0.4-0.4,0.7c0,0.1,0.1,0.2,0.2,0.3l0,0l0,0c0,0.2,0.2,0.3,0.2,0.3
				c0-0.2,0-0.3,0-0.3c0.1-0.2,0.2-0.3,0.3-0.3c0.1,0,0.2,0,0.2,0s0.1,0.9,0.2,1.3c0.1,0.3,0.2,0.8,0.2,1.2c0,0.1,0,0.2,0,0.3
				c0,0.3,0.2,0.3,0.4,0.4c0.1,0,0.3,0,0.4,0l0,0l0,0c-0.2,0.1-0.2,0.2-0.2,0.2c0,0.1,0.1,0.3,0,0.6l0,0c0.4-0.2,0.4-0.5,0.3-0.8
				l0,0l0,0c0.3-0.2,0.2-0.7-0.2-1.5c-0.2-0.4-0.3-1-0.1-1.1c0,0,0,0,0,0c0.1,0,0.1,0,0.3,0.3c0.1,0.2,0.3,0.3,0.4,0.5
				c0.2,0.2,0.3,0.4,0.3,0.5c0,0.1,0,0.1,0,0.1c0,0-0.1,0-0.1,0c-0.1,0-0.2,0-0.3,0c0.1,0.1,0.4,0.5,0.5,0.4c0.2-0.3,0,0.2,0.5,0.2
				c0.3,0,0.5-0.2,0.5-0.5c0-0.1,0-0.2,0-0.3c-0.1-0.3-0.3-0.6-0.4-0.8l-0.1-0.1c-0.7-0.8-0.7-1-0.6-1.1c0.1-0.1,0.1-0.2,0.3-0.2
				c0.3,0,0.6,0,0.6,0c0.3,0.1,0.8,0.1,0.8,0.3c0,0,0,0.1-0.1,0.1c-0.1,0-0.3,0.1-0.3,0.1c0,0,0.1,0.1,0.3,0.2
				c0.1,0.1,0.6,0.2,0.8,0l0.1-0.1c0.1,0,0.3,0,0.4-0.2c0-0.2-0.2-0.4-0.4-0.5c-0.2-0.1-0.7-0.3-1.1-0.4c-0.2,0-0.4-0.1-0.5-0.1
				l-0.9-0.2c0,0-0.5-0.2-0.7-0.2c-0.1,0-0.2-0.1-0.2-0.1c-0.1-0.1-0.3-0.2-0.4-0.3c-0.1-0.1-0.2-0.5-0.3-0.9
				c0.1,0.1,0.4,0.2,0.7,0.3c0-0.1-0.1-0.6,0-0.8c0.1-1.4,0.2-2.3,0.2-2.3s0.3,0.3,0.3,0.3c0-0.2,0-0.9-0.1-1.5c0,0,0,0,0,0
				C173.7,38.8,173.6,38.1,173.5,37.6z M174.5,44.5l0.7,0.2c0.1,0,0.2,0.1,0.3,0.1c0.1-0.3,0.2-0.7,0.2-1c0-0.4,0.8,0.4,1.4,1
				c0.2,0.2,0.3,0.1,0.1-0.1c-0.6-0.8-1.7-1.5-2-1.7c-0.5-0.3-0.8-0.3-0.6,0C174.8,43.3,174.7,43.9,174.5,44.5z M175.5,50.1
				c0.6,0.8,1.7,2.3,2.1,2.7c0.8,0.9,1.2,1,1.9,1c-0.2-0.6-0.4-1.2-1.4-2.8c-0.5-0.8-1.4-2.2-2.3-3.2c0,0.2,0,0.3-0.1,0.5
				c0,0,0,0.1,0,0.1c-0.1,0.1-0.1,0.2-0.2,0.3c-0.1,0.1-0.3,0.1-0.5,0.1c-0.2,0-0.3-0.1-0.4-0.2c-0.1,0-0.2,0-0.3-0.1
				c0,0.3,0,0.5-0.2,0.7c0,0.2,0,0.6-0.3,0.9c0,0,0,0.1,0,0.1c0.2,0.4,0.1,0.6,0,0.7c-0.1,0.1-1.1,1.2-1.3,1.5c-0.3,0.2-0.6,0-0.6,0
				l-0.2-0.1c0,0-0.3,0.3-0.5,0.5c0,0,0,0,0.1,0.1c0,0,0,0,0,0c0.3,0.3,0.7,0.5,1.2,0.7c0.4,0.2,1.5,0.6,2.2,0.9
				c-0.2-0.5-0.4-1.2-0.6-1.8c0.2,0.3,0.7,1.2,1.2,2c0,0,0.1,0,0,0c0.6,0.3,1.4,0.7,2,1c0-0.2-0.1-0.3-0.1-0.3s-0.5-0.6-0.9-1.1
				c-0.8-1.1-1.2-2.2-1.5-2.9c0.8,1.3,1.1,1.6,1.4,2.1c1.1,1.4,2.2,2.1,2.6,2.1c-0.2-0.8-0.4-1-0.4-1s-0.5-0.4-1.1-1.2
				c0.1,0.2,0.3,0.4,0,0c-0.2-0.3-0.1-0.2,0,0C176.7,52.4,176.1,51.4,175.5,50.1z M172.6,57.2c1.4,0.2,4.5,0.1,5.7-0.3
				c-0.4-0.3-2.2-1.5-4.9-2.6c-0.6-0.2-1.3-0.5-1.8-0.8c-0.3-0.2-0.5-0.4-0.8-0.6c-0.9-0.8-3.2-3.3-3.7-3.7l-1.6,1.4
				c0,0,4.1,4,5.2,4.6c1.3,0.7,5.1,1.6,5.1,1.6s-2.9-0.2-5.1-1.1c-1.3-0.5-5.6-4.7-5.6-4.7l-1,0.9c0.5,0.6,1.7,1.8,3.5,3.3
				C169,56.2,170.5,56.9,172.6,57.2z M168.1,56.2c0,0.8,0.6,1.6,0.8,1.7c0,0,0.2-0.3,0.4-1.1C168.8,56.6,168.4,56.4,168.1,56.2z
				 M161.1,51.1c-0.2,0.8-0.7,1.9-1.5,2.9c-0.4,0.5-0.9,1.1-0.9,1.1s0,0.1-0.1,0.3l-0.1,0.1l0.6-0.3c0.1-0.1,0.2-0.1,0.3-0.2
				c0.4-0.2,0.9-0.4,1.3-0.6c0.4-0.8,1-1.7,1.1-2c-0.1,0.2-0.2,0.7-0.6,1.8l0.3-0.1c0.7-0.3,1.3-0.5,1.6-0.6
				c0.5-0.2,0.7-0.4,0.9-0.5c0,0,0.1-0.1,0.2-0.2c0,0-0.5-0.5-0.5-0.5l-0.2,0.1c0,0-0.3,0.3-0.6,0c-0.2-0.2-1.3-1.3-1.3-1.5
				c-0.1-0.1-0.2-0.3,0-0.7c0,0,0,0,0,0c-0.3-0.3-0.4-0.7-0.4-0.9c-0.1-0.2-0.2-0.4-0.2-0.7c-0.1,0.1-0.2,0.1-0.3,0.1
				c-0.1,0.1-0.3,0.2-0.4,0.2c0,0,0,0-0.1,0c-0.2,0-0.3,0-0.5-0.1c-0.1-0.1-0.1-0.1-0.3-0.3c0,0,0,0,0,0c-0.6,0.6-1.1,1.4-1.9,2.7
				c-1,1.6-1.2,2.1-1.4,2.7c0.6,0,1-0.1,1.9-1c0.4-0.4,1.4-1.9,2.1-2.7c-0.5,1.3-1.1,2.4-1.6,3c-0.6,0.8-1.2,1.3-1.2,1.3
				s-0.2,0.2-0.4,1c0.4,0,1.6-0.6,2.6-2.1C160,52.8,160.2,52.4,161.1,51.1z M160.5,46.9c-0.3,0.3-0.6,0.7-0.6,1.2
				c0,0.3,0.2,0.5,0.5,0.5c0.4,0,0.2-0.5,0.5-0.2c0.1,0.1,0.4-0.3,0.5-0.4c-0.2,0-0.5,0.1-0.4-0.2c0-0.2,0.2-0.4,0.3-0.5
				c0.1-0.1,0.5-0.8,0.7-0.7c0.1,0.1,0,0.7-0.1,1.1c-0.4,0.8-0.5,1.4-0.2,1.5l0,0l0,0c0,0.3,0,0.6,0.3,0.8l0,0c-0.1-0.3,0-0.5,0-0.6
				c0,0,0-0.1-0.2-0.2l0,0l0,0c0.1,0,0.3,0,0.4,0c0.2,0,0.3-0.1,0.4-0.4c0-0.1,0-0.2,0-0.3c0.1-0.5,0.1-0.9,0.2-1.2
				c0.1-0.4,0.2-1.3,0.2-1.3s0.1,0,0.2,0c0.1,0,0.3,0.1,0.3,0.3c0,0.1,0,0.2,0,0.3c0.1,0,0.2-0.1,0.2-0.3l0,0l0,0
				c0.1-0.1,0.2-0.2,0.2-0.3c0.1-0.3-0.3-0.7-0.4-0.7c-0.2-0.2-0.2-0.5-0.1-0.8l0.1-0.3c0.1,0.1,0.3,0.3,0.4,0.4
				c0.5,0.4,1.1,0.3,1.1,0.3s-0.1-0.3-0.2-0.7c-0.1-0.5,0-0.9,0-0.9l0.4,0.4c0,0,0.2-0.8,0.1-2.3c-0.2-1.7-0.5-2.4-0.6-2.7
				c-0.1-0.4-0.3-0.8-0.3-0.8s0,0.2-0.3,0.5c-0.3-0.4-0.9-1.2-1.1-1.8c-0.1,0.2-0.2,0.3-0.3,0.4l-0.1,0.1l0-0.1
				c-0.1-0.4-0.3-0.7-0.5-1c-0.2-0.2-0.3-0.4-0.4-0.6c-0.1,0.5-0.2,1-0.2,1.4c0,0.4-0.1,0.8-0.2,1.1c0.1,0,0.2-0.1,0.2-0.1
				c0.1-0.1,0.2-0.1,0.2-0.1l0,0l0,0c0,0,0,0,0,0.1c-0.1,0.6-0.3,1.3-0.3,1.7c0,0.6,0,1.1,0,1.4c0,0,0.5-0.3,0.5-0.3
				s-0.3,0.9-0.1,2.3c0,0.2,0,0.7,0,0.8c0.3,0,0.5-0.2,0.6-0.3c-0.1,0.4-0.2,0.7-0.3,0.9c-0.4,0.5-1.1,0.6-1.7,0.8
				c-0.7,0.2-1.4,0.3-2,0.6c-0.2,0.1-0.4,0.3-0.4,0.5c0.1,0.2,0.3,0.2,0.4,0.2l0.1,0.1c0.2,0.2,0.7,0.1,0.8,0
				c0.1-0.1,0.2-0.2,0.3-0.2c0,0-0.2,0-0.3-0.1c0,0-0.1-0.1-0.1-0.1c0-0.3,1.2-0.3,1.4-0.3c0.2,0,0.3,0,0.3,0.2
				C161.2,45.9,161.2,46.1,160.5,46.9z M160.9,43c0.2-0.3-0.1-0.4-0.6,0c-0.3,0.2-1.5,0.9-2,1.7c-0.1,0.2-0.1,0.3,0.1,0.1
				c0.6-0.6,1.4-1.4,1.4-1c0,0.3,0,0.7,0.2,1c0.1,0,0.2,0,0.3-0.1l0.7-0.2C160.7,43.9,160.6,43.3,160.9,43z M159.6,31.6
				c0.5,0.7,1.4,2.9,1.4,4.4c0.6-1.5-0.4-4.5-1.3-6.2c0,0.5-0.1,0.6-0.2,0.8c-0.2-1.9-1.4-3.3-1.6-4.7c0,0.2-0.1,0.4-0.1,0.6
				c-0.4-0.8-0.8-1.6-1.1-2.7c-0.1,0.1-0.2,0.4-0.2,0.8c-0.6-1.7,0-2.3,0.2-2.4c0.5-0.3,1,0.2,1.4,0.6c0.6,0.7,1.3,2.1,3.4,2.1
				c0.3,0,0.5-0.1,0.3-0.1c0,0,0,0,0,0c-1.8-0.3-2.1-1-3.5-2.6c-0.9-1-1.8-1.6-2.9-0.3c-2.1,2.5-2.8,4.6-3.1,6.3
				c-0.2,1-0.4,3-0.1,4.1c0.2-0.1,0.3-0.2,0.3-0.2s0.3,2.8,0.8,3.5c0.1-0.3,0.3-1,0.3-1.7c0.3,0.8,0.5,1.3,0.9,1.8
				c0.2-0.7,0.2-1.4,0.1-2.1c0.4,1,0.7,1.4,1,1.6c0.2-0.4,0.4-1.2,0.2-3.5c0.2,0.9,0.3,1.5,0.3,2.1c0.1,0.1,0.3,0.2,0.4,0.3
				c0.1-0.2,0.3-0.6-0.1-3.5c1,3.2,0.4,4,0.3,4.2c-0.3-0.2-0.5-0.4-0.7-0.6c0,0.9-0.2,1.3-0.3,1.7c-0.4-0.2-0.6-0.5-0.8-0.8
				c0,1-0.2,1.6-0.2,1.6s-0.7-0.8-0.9-1.4c0,0.4-0.2,1.5-0.5,1.7c-0.8-1.1-1.1-4.1-1.1-4.1s-0.1,0-0.1,0.1c0,0.7,0.1,1.9,0.2,3.2
				c0,0,0,0,0,0c0.1,1.5,0.3,3.2,0.4,4.7c0.3,3.6,0.7,7.2,1.2,10.8c0,0,0.1,0.6,0.2,0.9c0.1-0.4,0.1-1.8,0.1-2.6
				c0-0.2,0.3-0.5,0.3-1.6c0-0.4-0.5-6-0.7-8.2c0-0.3-0.1-0.9-0.1-0.9c0,0.1,0,0.1,0,0.2c0.2,0.8,0.3,1.7,0.4,2.5
				c0.1,0.5,0.1,1,0.2,1.6c0.2,1.6,0.4,3.2,0.5,4.9c0,1-0.3,1.3-0.3,1.6c0.2,1.3,0,2.5-0.2,3.3c-0.1,0-0.2-0.1-0.2-0.2
				c0.2,1,0.4,1.8,0.4,1.8c0.4-0.8,0.6-1.7,0.5-3.9c0-0.2,0.3-0.7,0.4-1.8c0-0.3,0-1.4-0.1-2.7c-0.2-2.4-0.4-4.7-0.6-7.1
				c0-0.1,0-0.4,0-0.4c0,0.1,0.1,0.2,0.1,0.3c0.7,3,0.9,6.2,1.1,9.3c0.1,1.4-0.5,2.4-0.4,2.6c0.1,0.7,0.1,0.7,0,1.3
				c0,0.7-0.1,0.8-0.1,0.8c0.2-0.5,1-2.4,0.7-8c0-0.1,0-0.3,0-0.4c-0.2-3.9-0.5-6.5-0.5-6.5c0.4,1.1,0.7,3.5,0.9,6.2
				c0,0,0.1-0.1,0.1-0.1c0.4-1.1,0.5-2.1,0.4-3.2c-0.1-2.1-0.4-3.8-0.4-3.8c0,0,0,0.2,0.1,0.2c0.1,0.2,0.3,0.8,0.5,1.9
				c0.1,0.7,0.3,1.5,0.3,2.2c0,0.1,0,0.2,0,0.3l0,0c0.8-1.2,0.4-3.5,0.1-6c0.3,0.8,1,3,0.8,4.6c1.2-1.1,0.5-3.3,0.1-5.8
				c0.7,1.5,1.2,3.3,1,4.5c1-1.2,0.6-2.9-0.3-6.1c0.5,0.9,1.2,2.9,1.3,4.2C161,36,160.2,33.5,159.6,31.6z M170.2,38.7
				c0,0,0.5-0.5,0.7-2.1c0.1,0.1,0.3,0.2,0.3,0.5c0.3-0.4,1-2.5,1-3.3c0.2,0.1,0,0,0.3,0.2c0.2-0.3,0.5-1.5,0.7-3.2
				c0.1,0,0.2,0,0.3,0.1c0.1-0.8,0.2-2,0.3-2.9c0-0.7,0-2.3-0.3-3.2c-0.3-0.9-0.5-1.3-1-2.2c0,0-0.2,0.1-0.3,0.2
				c-0.1-0.4-0.5-1.5-0.7-1.8c-0.5-0.9-0.7-1.6-1.2-1.9c0.2,0,0.3,0.1,0.6,0.1c-0.3-0.3-0.5-0.5-0.8-0.8c0.1-0.1,0.3-0.1,0.7,0
				c-0.5-0.5-0.7-1.1-1.9-1.6c0.2,0,0.4,0,0.7,0c-0.2-0.3-0.6-0.7-1.2-0.9c-1.3-0.3-3.1-0.3-4,0.7c-0.1,0.1-0.3,0.1-0.5,0.2
				c-0.1,0.1-0.2,0.1-0.2,0.1c-0.1,0.1-0.2,0.3,0.1,0.7c-0.4-0.1-0.5-0.4-0.5-0.4c-0.1,0.1-0.3,0.2-0.4,0.4
				c-0.1,0.2-0.2,0.6-0.2,0.7c0,0,0.3,0.2,0.4-0.2c0-0.1,0.6-0.2,0.8-0.2c0.3,0,0.6,0.1,0.9,0.1c-0.1,0-0.5,0.2-0.7,0.2
				c-0.2,0-0.2,0.2,0,0.2c0.2,0,0.2-0.1,0.4-0.1c0.1,0,0,0.2,0.1,0.3c1.1-0.2,1.1,0.9,2.3,0.7c-0.5-0.4-1-1.1-1.4-1.3
				c1.1,0.2,1.7,1.2,2.9,1.2c0-0.1,0-0.1-0.1-0.3c0.4,0,0.7,0.3,0.8,0.3c-0.2,0.2-0.5,0.3-1,0.4c0.1,0.2,0.5,0.2,0.7,0.2
				c-0.2,0.2-0.5,0.3-1.1,0.2c-0.2,0.2-0.4,0.5-1.2,1c0-0.2,0-0.2,0-0.4c-0.5,0.3-0.9,0.8-1.2,1c0.1-0.2,0.2-0.5,0.3-0.7
				c-1.3,1.2-2.6,2.4-3.1,3.3c-0.5,1-0.7,2-0.6,3.7c0.1,0.9,0.4,3.5,0.5,4c0.1,0,0.2-0.1,0.3-0.1c0.3,1.9,1.3,4.5,1.8,5.4
				c0.1-0.2,0.1-0.3,0.3-0.4c0.1,0.5,0.3,1.1,0.8,1.4c0-0.3,0.1-0.5,0.2-0.7c0.1,0.4,0,1.5,0.7,2.1c0-0.3,0.1-0.6,0.2-1
				c0.1,0.4,0.1,0.8,0.3,1.2c0.2,0.4,0.5,0.9,0.7,1c0-0.9,0.1-0.8,0.1-1.2c0,0.1,0.3,0.4,0.5,1.5c0.7-0.5,0.9-2.2,0.9-2.2
				c0,0,0.2,0.2,0.3,0.6c0.6-0.6,0.7-1.4,0.9-2C170.3,38.1,170.3,38.5,170.2,38.7z M170.9,47.5c0.8,0,1,0,1.3-0.1
				c0-0.1,0-0.2-0.1-0.3c0-0.1,0-0.1,0-0.2c0,0,0,0,0,0c-0.3,0.1-0.8,0.2-1.5,0.1c-0.3-0.1-0.4-0.1-0.6-0.2
				c-0.2-0.1-0.6,0.3-0.9,0.6c-0.3,0.3-0.6,0.6-0.7,0.8c0,0,0,0.1,0,0.1c0.3,0.2,3.5,3.2,3.7,3.4c0.1,0,0.1,0.1,0.2,0
				c0.1-0.1,0.4-0.4,0.6-0.6c0,0-3.2-3-3.3-3.1c0,0-0.1-0.1,0-0.1c0,0,0.2-0.2,0.2-0.2c0,0,0.1,0,0.1,0c0,0.1,1.1,1,1.1,1l1.4,1.2
				l0.9,0.8c0.1-0.1,0.1-0.1,0.1-0.1c0.1-0.1,0.1-0.2-0.3-0.7c-0.1-0.1-2.3-2.2-2.3-2.2C170.5,47.6,170.6,47.5,170.9,47.5z
				 M165.9,48.2c-0.1,0-3.3,3.1-3.3,3.1c0.2,0.2,0.4,0.4,0.6,0.6c0.1,0.1,0.1,0.1,0.2,0c0.2-0.2,3.5-3.2,3.7-3.4c0,0,0-0.1,0-0.1
				c-0.1-0.2-0.5-0.5-0.7-0.8c-0.3-0.3-0.7-0.7-0.9-0.6c-0.3,0.1-0.3,0.1-0.6,0.2c-0.7,0.1-1.2,0-1.5-0.1c0,0,0,0-0.1,0
				c0,0.1,0,0.2,0,0.2c0,0.1,0,0.1,0,0.2c0.3,0.1,0.5,0.1,1.4,0.1c0.3,0,0.4,0.1,0.2,0.3c0,0-2.1,2.1-2.3,2.2
				c-0.4,0.4-0.5,0.5-0.3,0.7c0,0,0,0,0.1,0.1l0.9-0.8l1.4-1.2c0,0,1-0.9,1.1-1c0-0.1,0.1,0,0.1,0c0,0,0.2,0.2,0.2,0.2
				C165.9,48,165.9,48.1,165.9,48.2z M166.2,40.6c0,0,0-0.2-0.1-0.4c-0.1-0.1-0.3-0.3-0.4-0.4c-0.1-0.1-0.1-0.2-0.1-0.2
				c0,0.1,0,0.4,0.1,0.5c0,0.1,0.1,0.3,0.3,0.4C166.1,40.5,166.2,40.6,166.2,40.6z M166.2,46.7c0,0,0.2,0.2,0.3,0.3
				c0-0.3,0.2-1.4,0.1-1.5C166.2,46.2,166.2,46.7,166.2,46.7z M164.9,46.7c0.1,0,0.4-0.2,0.6-0.2c0,0,0.1,0,0.1,0l0,0
				c0.1-0.3,0.2-0.8,0.4-1.1C165.9,45.3,165,46.4,164.9,46.7z M167.3,47.8c0-0.4,0-0.9-0.1-1.1c-0.1,0.2-0.2,0.5-0.3,0.8
				C167,47.5,167.2,47.8,167.3,47.8z M167.5,44.9c0,0-0.1-0.6-0.5-0.7C167,44.6,167.5,44.9,167.5,44.9z M167.8,44
				C167.8,44,167.8,44,167.8,44C167.8,44,167.8,44,167.8,44c0,0,0.1-0.2,0.3-0.3c0.2-0.1,1.1-0.7,1.2-0.9c0.2-0.2,0.2-0.6,0.2-0.6
				s-0.2,0.3-0.5,0.5c-0.3,0.2-1,0.6-1.2,0.8c-0.1,0.1-0.1,0.2-0.1,0.3c0-0.1,0-0.1-0.1-0.2c-0.2-0.5-0.9-0.6-1.3-1.1
				c-0.3-0.3-0.3-0.4-0.3-0.4c0,0.3,0.1,0.5,0.2,0.7c0.1,0.2,0.4,0.4,0.9,0.7C167.7,43.8,167.8,44,167.8,44z M167.4,42.4
				c0-0.7-0.8-0.8-1-1.5C166.3,41.8,167,41.9,167.4,42.4z M167.8,45.2c0,0,0.1,0,0.3-0.2c0.2-0.1,0.4-0.3,0.5-0.4
				c0.1-0.2,0.1-0.4,0.1-0.5c0,0,0,0.2-0.3,0.4c-0.1,0.1-0.3,0.3-0.4,0.4C167.8,45.1,167.8,45.2,167.8,45.2z M168.4,45.7
				c0.1,0.4,0.1,1.4,0.1,1.8c0,0,0,0,0,0c0.1-0.1,0.2-0.2,0.4-0.4C168.9,46.9,168.8,46.1,168.4,45.7z M167.8,48.3
				c0,0,0.3-0.3,0.4-0.4c0,0,0,0,0,0c-0.1-0.6-0.2-1.3-0.4-1.5C167.8,46.6,167.8,47.6,167.8,48.3z M167.8,48.6c0,0.2,0,0.4,0,0.5
				c0,0,0.3-0.3,0.3-0.3S167.9,48.7,167.8,48.6z M168,49.5c0.5,0.5,1.1,1.1,1.5,1.5c0.3-0.3,0.4-0.4,0.4-0.4l-1.6-1.4
				C168.2,49.2,168.1,49.3,168,49.5z M169.8,51.3c0.3,0.3,0.7,0.7,1,1c0.2-0.2,0.3-0.4,0.4-0.5l-1-0.9
				C170.2,50.9,170.1,51.1,169.8,51.3z M170.1,46.5c-0.2-0.2-0.6-0.8-1-1.1c0.3,0.6,0.4,1,0.4,1.1l0,0c0,0,0,0,0.1,0
				c0.1,0,0.1,0,0.2,0C169.9,46.4,169.9,46.5,170.1,46.5C170,46.5,170.1,46.5,170.1,46.5z M169.7,40.6c-0.2,0.3-0.4,0.5-0.6,0.7
				c0.1-0.2,0.1-0.5,0.1-0.5c-0.1,0.2-0.4,0.6-0.6,0.8c-0.5,0.5-0.6,0.9-0.6,0.9s0.1-0.2,0.7-0.5C169.3,41.7,169.6,41.2,169.7,40.6z
				 M162.5,34.3c0,0.6,0.4,1.3,0.9,1.7C163.1,35.1,162.8,34.9,162.5,34.3z M174.2,24c0.2,0,0.4,0,0.6-0.1c0.2-0.1,0.2-0.2,0.3-0.3
				c1.3-1.9,3.8-5.1,5.7-7.5c-3.8-3.8-9.3-4-10.7-3.9c-0.3,0-0.7,0.3-0.3,0.8c-0.3,0.1-1.5,0-1.9-0.4c-0.4,0.4-1.6,0.5-1.9,0.4
				c0.4-0.6,0-0.8-0.3-0.8c-1.4-0.1-7.2,0.5-10.7,3.8c1.9,2.5,5.9,7.8,6,7.9c0.1,0.1,0.3,0.2,0.5,0.2c0,0,0.1,0,0.1,0
				c0.2,0,0.4-0.2,0.6-0.4c0.4-0.5,0.6-0.7,1-1.1c0.8-0.8,1.5-1.4,1.7-1.5c0.3-0.3,0.4-0.6,0.4-0.8c0-0.3-0.2-0.4-0.4-0.6
				c0,0,0,0.1-0.1,0.1c-0.1-0.1-0.3-0.5-0.3-0.5l-0.1,0.2c0,0-0.3-0.7-0.8-0.6c-0.6,0.1-1.1-0.2-1.1-0.2c0,0-0.1,0.2-0.1,0.5
				c0,0,0,0,0,0c-0.4-0.4-0.6-1.3,0.3-2c0.5-0.4,0.6-0.4,1-0.6c0.2-0.1,0.3-0.2,0.3-0.3c0.3-0.3,0.8-0.5,1.1-0.6
				c0.4-0.1,1.3-0.2,2.2-0.2c0.5,0,1,0.1,1.4,0.3c0.3,0.1,1.1,0.7,1.5,1.3c0.3,0.4,0.8,1.5,1.1,2.1c0.6,1.4,0.5,1.3,0.9,2.2
				c0.5,1.1,0.7,1.7,1.2,2.3C173.7,23.9,173.9,24,174.2,24z M181.1,15.7c0.1-0.2,0.3-0.3,0.4-0.5c-1.8-1.5-4.3-3.1-7.2-3.7
				c-1.9-0.4-3.5-0.5-4.4-0.4c-0.8,0-1.3,0.3-1.3,0.8c-0.5-0.1-0.6-0.7-0.7-0.8c0,0.3-0.3,0.8-0.7,0.8c0-0.5-0.5-0.8-1.3-0.8
				c-1,0-2.5,0-4.4,0.4c-2.9,0.6-5.4,2.1-7.1,3.6c0.1,0.2,0.3,0.3,0.4,0.5c1.6-1.5,3.7-2.6,5.9-3.3c1.8-0.5,4.1-0.7,5.2-0.7
				c0.9,0,1.1,0.6,1,0.9c0.4,0,1-0.3,1.2-0.6c0.1,0.2,0.7,0.6,1.2,0.6c-0.1-0.3,0-0.8,1-0.9c1,0,3.3,0.1,5.2,0.7
				C177.3,12.9,179.5,14.2,181.1,15.7z M182.1,13.8c0.2,0.7,0.4,1.4,1,1.9c0.1,0.1,0.2,0.1,0.3,0.2l0,0c0-1.3,0.4-2,0.8-2.8
				c0,0,0,0,0,0c0,0,0,0,0,0c0.5,0.1,1.1,0.3,2.4,0c-1.2-0.8-1-1.8-1.9-2.8c-0.1-0.1-0.2-0.2-0.3-0.3c-0.3-0.2-0.6-0.3-0.7-0.3
				c-0.2,0-0.4,0.1-0.4,0.2c-0.1,0.1-1.4,1.5-2.2,2.5C181.7,12.3,181.9,13,182.1,13.8z M182.9,9.2c-0.9-0.8-2.2-1.8-3.9-2.5
				c-4.3-1.9-9.7-1.9-11.2-1.9c0,0,0,0,0,0c0,0,0,0,0,0c-1.5,0-7,0-11.2,1.9c-1.6,0.7-3,1.7-3.9,2.5c0,0,1.9,2.2,2.4,2.8
				c0.3,0.3,0.3,0.6,0.2,1c3-2,6.3-3,12.4-3l0.3,0c5.9,0.1,9.4,1.1,12.3,3c-0.2-0.5-0.1-0.7,0.2-1C181,11.4,182.9,9.2,182.9,9.2z
				 M152.5,9.8C152.5,9.8,152.5,9.8,152.5,9.8c-0.1-0.1-0.4-0.4-1.2,0.1c-1.3,1.1-0.9,2.2-2.3,3.1c0.5,0.1,0.9,0.1,1.2,0.1
				c0.2,0,0.4,0,0.6,0c0.3,0,0.5-0.1,0.6-0.1c0,0,0,0,0,0c0.3,0.8,0.8,1.5,0.8,2.8c1.6-0.8,0.9-3.6,2.4-3.5
				C153.9,11.4,152.7,10,152.5,9.8z M153.6,15.3c1.2,1.6,2,2.7,2.2,3c0.4,0.6,1.8,2.2,1.8,2c0-0.1-0.9-1.3-1.4-2.1
				c-0.8-1.1-1.6-2.2-2.4-3.2C153.7,15.1,153.6,15.2,153.6,15.3z M159.3,25.9c0,1.1,0.2,2,0.6,3.4C160,27.8,159.7,26.3,159.3,25.9z
				 M158.5,24.6c-0.1,0.5-0.1,1.2,0.1,1.7c0.1,0.3,0.3,0.7,0.4,1C159,26.2,158.8,25.1,158.5,24.6z M161.5,34.5
				c0.2-0.6,0.4-4.6-1.2-6.4C160.8,29.7,161.3,31.6,161.5,34.5z M157.2,56.9c1.1,0.4,4.2,0.5,5.7,0.3c1.8-0.2,3.3-0.8,4.5-1.6
				c-0.3-0.3-0.7-0.6-1.1-1c-0.6,0.5-1.2,0.9-1.5,1c-2.2,0.9-5.1,1.1-5.1,1.1s3.8-0.9,5.1-1.6c0.3-0.1,0.7-0.5,1.2-0.9
				c-0.5-0.5-1-0.9-1.3-1.3c-0.2,0.2-0.4,0.4-0.7,0.6c-0.5,0.4-1.2,0.6-1.8,0.8C159.4,55.4,157.6,56.5,157.2,56.9z M166.2,56.9
				c0.1,0.4,0.3,0.8,0.4,1.1c0,0,0.7-0.6,0.9-1.9c-0.1,0.1-0.4,0.3-0.5,0.4C166.7,56.6,166.4,56.8,166.2,56.9z M180.1,18.2
				c0.2-0.2,1-1.3,2.1-2.8c-0.1-0.1-0.2-0.2-0.2-0.3c-0.7,1-1.5,2-2.2,3c-0.5,0.7-1.4,1.9-1.4,2.1C178.3,20.5,179.7,18.8,180.1,18.2
				z M186.4,11c-0.1,0.2-0.4,0.5-0.4,0.5c0.3,0.6,0.7,1.2,1.7,1.8C187.3,12.5,186.8,11.8,186.4,11z M185.5,10.5c0,0,0.1,0.3,0.2,0.3
				c2.2-2.9,4.2-5.6,4.2-5.6s-0.9,0.6-2.1,1.2c0.1,0.7-0.3,1.5-0.5,1.7C187.3,8.1,186.6,9.1,185.5,10.5z M150.2,9.7
				c0.1,0.1,0.2,0.3,0.3,0.4c1.6-2.1,3.8-3.6,6.5-4.6c-0.2-0.3-0.5-1,0.3-1.8c0,0,0,0,0,0c1.2,0.1,1.4,0.8,1.5,1.2
				c2.1-0.6,4.5-0.9,7.3-1c0.1-1.9,1.4-2.3,1.4-2.3s0-0.4,0.3-0.5c0,0,0,0,0,0c0.3,0.1,0.3,0.5,0.3,0.5s1.3,0.5,1.4,2.3
				c2.7,0.1,5.2,0.4,7.3,1c0.1-0.4,0.4-1.1,1.5-1.2c0,0,0,0,0,0c0.8,0.8,0.5,1.5,0.3,1.8c2.7,1,4.9,2.6,6.6,4.7
				c0.1-0.2,0.2-0.3,0.3-0.5c-1.5-1.9-3.7-3.4-6-4.4c0.3-0.7,0-1.4-0.4-1.8c0-0.3-0.2-0.6-0.4-0.7c0,0,0,0,0,0
				c-0.2,0-0.6,0.1-0.8,0.3c-0.7,0.1-1.3,0.4-1.7,1.2c-1.7-0.4-3.6-0.7-6.1-0.8c-0.1-1.1-0.7-1.8-1.5-2.2c-0.2-0.4-0.5-0.6-0.8-0.7
				c-0.3,0.1-0.6,0.3-0.8,0.7c-0.8,0.4-1.5,1.1-1.5,2.2c-2.5,0.1-4.4,0.4-6.1,0.8c-0.4-0.7-1-1.1-1.7-1.2c-0.2-0.2-0.6-0.3-0.8-0.3
				h0c-0.2,0.1-0.4,0.4-0.4,0.7c-0.4,0.4-0.7,1.1-0.4,1.8C153.8,6.3,151.8,7.7,150.2,9.7z M150.1,10.7c0.1-0.1,0.1-0.2,0.2-0.3
				c-1-1.3-1.7-2.2-1.7-2.3c-0.2-0.2-0.6-1-0.5-1.7c-1.2-0.6-2.1-1.2-2.1-1.2S147.9,7.8,150.1,10.7z M148,13.3
				c0.2-0.1,0.8-0.5,1.2-1.1c0.2-0.3,0.3-0.5,0.5-0.8c0,0-0.4-0.5-0.4-0.5C148.8,11.7,148.4,12.5,148,13.3z M144.5,29.5
				c0.4,0.3,2.4,2,5.5,3.8c0.1-1.9,0.1-8.6,4.2-15.9c-0.5-0.6-0.7-0.9-1.1-1.5c-0.3,0.3-0.8,0.6-1.4,0.8c0-1.4-0.3-2.2-0.7-3.1
				c-0.6,0-1.6,0-3.1-0.3C146,17.7,144.9,22.8,144.5,29.5z M163,60.1L163,60.1c0.1-0.4,0.7-1.6,0.9-2.3c0-0.1-0.1-0.2-0.1-0.3
				c-0.4,0.1-0.7,0.1-1.1,0.2c-0.2,0-3.8,0.6-6.5-0.6c0.3-0.2,0.9-0.7,1.7-1.2c0-0.1,0-0.1,0-0.2c-0.6,0.4-1.2,0.4-1.7,0.4
				c0-0.4,0.1-0.9,0.3-1.6c-0.6,0.1-1.1,0-1.1,0s0.4-1.3,1.2-2.8c0.8-1.4,1.9-2.9,2.9-4c0.1-0.5,0.5-0.9,0.5-0.9
				c0,0,0.1-0.1,0.2-0.2c-0.1-0.1-0.2-0.2-0.3-0.3c-0.1,0.1-0.2,0.2-0.3,0.2c-0.3,0.1-0.5,0.2-0.6,0.2c-0.3,0-0.5-0.1-0.6-0.2l0,0
				c-0.2-0.1-0.4-0.2-0.5-0.4c0,0,0-0.1,0-0.1c-0.2,0.1-0.3,0.1-0.5-0.1c-0.2-0.2,0.1-1.2,1.2-2.3c0.8-0.7,1.5-1.2,2.2-1.4
				c0.5-0.2,0.8,0.2,0.6,0.5c-0.3,0.4-0.5,1-0.2,1.7c0.3-0.1,0.4-0.2,0.5-0.2c0.1,0,0.3-0.1,0.4-0.3c0,0,0-0.1,0.1-0.1l-0.5,0.1
				c0.2-0.6-0.1-2,0.1-2.9c-0.1,0-0.2,0.2-0.3,0.2c-0.2-0.8-0.1-2.2-0.1-2.8c0-0.2-0.2-0.5-0.6-0.8c-0.3,0.7-0.7,1.5-1.5,2.4
				c-0.6,0.7-1.6,1.4-2.2,3.7c0,0,0,0,0,0c-0.1,0.4-0.2,0.7-0.4,1c-0.4,0.7-0.3,1.2-0.3,1.2l0,0c0,1.5,0,4.5-0.4,6.1
				c-0.3,1.5-0.8,2.2-0.8,2.2l-0.1-0.1c-0.1,0.5-0.4,1.4-0.9,2.1c0,0-0.5-1-1.4-8.5c-1-8.3-1.5-16.9-1.5-16.9l0,0
				c-0.1-1.5,0.3-3.3,0.7-4.6c0.8-2.1,2.2-4.1,3-4.9c0.5-0.5,1.1-0.6,1.7-0.5c-0.2-0.2-0.3-0.5-0.3-0.5c-0.6-0.8-1.2-1.6-1.8-2.3
				c-4,7.1-3.9,15.6-3.9,15.6l0,0.9l-0.7-0.4c-3.2-1.8-4.5-2.9-5.6-3.7c0,0.9-0.1,3.8-0.1,3.8c0,0.1,0,0.7,0,1.8
				c0,3.4,0.6,11.7,3.4,17.4c0.4,0.7,1.4,2.6,3.3,4.4c1.4,1.3,3.1,2.3,4.9,2.9c0.1,0,0.3,0.1,0.4,0.1
				C158.4,61.4,160.7,61.3,163,60.1z M162.8,62.5c0.4-0.4,1.1-0.6,1.9-0.3c0-1,0.2-2.5,0.4-3.8c-0.3,0.3-0.6,0.5-0.6,0.5
				c0,0-0.1-0.1-0.2-0.1C163.7,60.3,162.8,62.5,162.8,62.5z M170.9,63.2c0-1-0.4-3.9-0.6-5.5c0,0-0.1-0.1-0.1-0.1
				c-0.1-0.1-0.1-0.1-0.2-0.2c-0.1,0.3-0.2,0.7-0.4,1c-0.2,0.4-0.5,0.8-0.5,0.8c0,0-0.8-0.5-1.3-1.6c-0.5,1-1.2,1.6-1.3,1.6
				c-0.1,0-0.3-0.4-0.5-0.8c-0.1-0.2-0.2-0.4-0.2-0.5c-0.3,1.7-0.6,4.4-0.6,5.4c-1.6-1-2.5,0-2.2,0.7c0,0.1,0.1,0.1,0.1,0.2
				c0.2,0.3,0.4,0.4,0.8,0.4c0.5,0,1.2,0.1,1.9,0.4c0.7,0.3,1.4,0.9,2.2,1.8c0.8-0.9,1.5-1.5,2.2-1.8c0.8-0.4,1.4-0.4,1.9-0.4
				c0.3,0,0.6-0.2,0.8-0.4c0,0,0.1-0.1,0.1-0.2C173.4,63.2,172.4,62.2,170.9,63.2z M173.3,62.5c0,0-1-2.5-1.5-3.9
				c-0.1,0.2-0.3,0.3-0.3,0.3c0,0-0.2-0.1-0.5-0.4c0.2,1.2,0.4,2.6,0.5,3.7C172.2,61.9,172.8,62.1,173.3,62.5z M191.3,34.3
				c0-1.1-0.1-3-0.1-3.9c-1.1,0.9-2.1,1.7-5.4,3.7l-0.9,0.5l0-0.6c0-0.1,0.2-8.5-3.9-15.8c-0.3,0.3-1.1,1.4-2,2.6
				c0.5-0.1,1.1,0.1,1.5,0.6c0.9,0.8,2.2,2.8,3,4.9c0.4,1.3,0.8,3.1,0.7,4.6l0,0c0,0-0.5,8.6-1.5,16.9c-0.9,7.5-1.4,8.5-1.4,8.5
				c-0.6-0.7-0.8-1.6-0.9-2.1l-0.1,0.1c0,0-0.5-0.8-0.8-2.2c-0.4-1.7-0.4-4.7-0.4-6.1l0,0c0,0,0-0.4-0.3-1.2c-0.2-0.3-0.3-0.7-0.4-1
				c0,0,0,0,0,0c-0.5-2.3-1.6-3-2.2-3.7c-0.7-0.9-1.2-1.8-1.5-2.5c0,0,0,0-0.1,0c-0.4,0.4-0.7,0.7-0.7,0.9c0.1,1.3,0.3,2.3,0.1,3
				c-0.1,0-0.2-0.2-0.3-0.2c0.1,0.9-0.3,1.9-0.1,2.7l-0.5-0.1c0,0.1,0,0.1,0.1,0.1c0.1,0.1,0.1,0.2,0.3,0.2c0,0,0.1,0.1,0.2,0.1
				c0,0,0.2,0.1,0.5,0.2c0.3-0.7,0.1-1.3-0.2-1.7c-0.3-0.3,0.1-0.7,0.6-0.5c0.7,0.3,1.4,0.7,2.2,1.4c1.1,1,1.4,2.1,1.2,2.3
				c-0.2,0.2-0.3,0.1-0.5,0c0,0,0,0.1,0,0.1c-0.1,0.2-0.2,0.3-0.5,0.4l0,0c-0.1,0.2-0.3,0.2-0.6,0.2c-0.3,0-0.6-0.2-0.6-0.2
				c-0.1,0-0.1-0.1-0.2-0.2c-0.1,0-0.1,0.1-0.2,0.2c0.9,1.2,2.5,3.1,3.7,5.2c0.9,1.5,1.2,2.8,1.2,2.8s-0.5,0.1-1.1,0
				c0.2,0.6,0.3,1.1,0.3,1.6c-0.5,0-1.1,0-1.7-0.4c0,0.1,0,0.2,0.1,0.3c0.5,0.4,1.1,0.8,1.4,1c-2.6,1.2-6.4,0.7-6.5,0.7
				c-0.2,0-0.3,0-0.5-0.1c0,0.1-0.1,0.2-0.1,0.2c0.3,0.6,0.8,2,1,2.3c1.7,0.8,3.2,1.3,5.6,0.9c0,0,0.4,0,1.4-0.4
				c1-0.3,3-1.5,4.5-2.9c1.9-1.8,3-3.6,3.4-4.3c2.9-5.6,3.4-14,3.4-17.4C191.3,34.9,191.3,34.3,191.3,34.3z"/>
		</g>
		<g>
			<g>
				<path d="M0,39.8h2.9c1.2,0,2.1,0.4,2.5,1.4c0.4,0.8,0.4,2.7,0.4,3c0,2-0.2,3.2-0.6,3.8c-0.5,0.8-1.5,1.2-3.1,1.2H0V39.8z
					 M1.2,48.2h1.1c1.7,0,2.3-0.6,2.3-2.8v-1.9c0-1.9-0.6-2.6-1.8-2.6H1.2V48.2z"/>
				<path d="M7.9,49.2v-9.4h4.8v1H9.1v3h3.4v1H9.1v3.3h3.7v1H7.9z"/>
				<path d="M14.6,49.2v-9.4h2.8c1.3,0,2.6,0.5,2.6,2.7c0,2.1-1.7,2.6-2.6,2.6h-1.6v4.1H14.6z M15.8,44h1.3c0.5,0,1.7-0.1,1.7-1.6
					c0-1.4-1.1-1.6-1.3-1.6h-1.7V44z"/>
				<path d="M23.1,39.8h1.5l3.1,9.4h-1.3L25.7,47h-3.6l-0.7,2.2h-1.2L23.1,39.8z M23.8,40.9L23.8,40.9l-1.5,5h3L23.8,40.9z"/>
				<path d="M30.1,44.9v4.3h-1.2v-9.4h3.2c1.7,0,2.3,1.2,2.3,2.3c0,1.1-0.6,2-1.7,2.1v0c1.1,0.2,1.5,0.5,1.5,2.4
					c0,0.4,0.1,1.9,0.3,2.5h-1.2c-0.3-0.6-0.3-1.9-0.4-3.1c-0.1-1.1-1-1.2-1.4-1.2H30.1z M30.1,43.9h1.8c0.9,0,1.3-0.7,1.3-1.6
					c0-0.7-0.3-1.4-1.3-1.4h-1.8V43.9z"/>
				<path d="M41.4,39.8v1H39v8.3h-1.2v-8.3h-2.5v-1H41.4z"/>
				<path d="M43.8,49.2h-1.1v-9.4h1.9l2.4,7.9h0l2.4-7.9h2v9.4h-1.2v-8.3h0l-2.6,8.3h-1.1l-2.6-8.3h0V49.2z"/>
				<path d="M53.5,49.2v-9.4h4.8v1h-3.6v3h3.4v1h-3.4v3.3h3.7v1H53.5z"/>
				<path d="M66.5,39.8v9.4h-1.6l-3.7-8.1h0v8.1h-1.1v-9.4h1.7l3.7,8h0v-8H66.5z"/>
				<path d="M73.9,39.8v1h-2.5v8.3h-1.2v-8.3h-2.5v-1H73.9z"/>
				<path d="M78,45.8v-3.1c0-1.9,1-3.1,3-3.1c2,0,3,1.2,3,3.1v3.1c0,2.6-1,3.6-3,3.6C79,49.4,78,48.4,78,45.8z M82.7,45.8v-3.2
					c0-2-1.4-2-1.7-2s-1.7,0.1-1.7,2v3.2c0,2.1,0.6,2.6,1.7,2.6S82.7,47.9,82.7,45.8z"/>
				<path d="M85.9,49.2v-9.4h4.7v1h-3.5v3h3.3v1h-3.3v4.3H85.9z"/>
				<path d="M94.7,49.2v-9.4h1.2v4.1h3.3v-4.1h1.2v9.4h-1.2v-4.3h-3.3v4.3H94.7z"/>
				<path d="M102.6,49.2v-9.4h4.8v1h-3.6v3h3.4v1h-3.4v3.3h3.7v1H102.6z"/>
				<path d="M111.2,39.8h1.5l3.1,9.4h-1.3l-0.7-2.2h-3.6l-0.7,2.2h-1.2L111.2,39.8z M111.9,40.9L111.9,40.9l-1.5,5h3L111.9,40.9z"/>
				<path d="M117,49.2v-9.4h1.2v8.3h3.4v1H117z"/>
				<path d="M127.3,39.8v1h-2.5v8.3h-1.2v-8.3h-2.5v-1H127.3z"/>
				<path d="M128.6,49.2v-9.4h1.2v4.1h3.3v-4.1h1.2v9.4h-1.2v-4.3h-3.3v4.3H128.6z"/>
			</g>
			<g>
				<g>
					<path d="M4.6,21.2c0.2,0,0.4-0.1,0.5-0.2s0.2-0.3,0.2-0.5c0-0.2-0.1-0.4-0.2-0.5s-0.3-0.2-0.5-0.2c-0.2,0-0.4,0.1-0.5,0.2
						s-0.2,0.3-0.2,0.5c0,0.2,0.1,0.4,0.2,0.5S4.4,21.2,4.6,21.2z"/>
					<path d="M2.1,21.2c0.2,0,0.4-0.1,0.5-0.2c0.1-0.1,0.2-0.3,0.2-0.5c0-0.2-0.1-0.4-0.2-0.5c-0.1-0.1-0.3-0.2-0.5-0.2
						c-0.2,0-0.4,0.1-0.5,0.2s-0.2,0.3-0.2,0.5c0,0.2,0.1,0.4,0.2,0.5S1.9,21.2,2.1,21.2z"/>
					<path d="M70.7,18.6v10.5h-1h-4h0h-4h-4c0,0,0,0,0,0v0h-1v-6.4l-0.6,0c-1.1,0-2,0.2-2.8,0.4s-1.5,0.5-2.1,0.9
						c-0.6,0.4-1.1,0.7-1.6,1.2s-0.8,0.9-1.1,1.3v-2.2h-1.1v4.7h-1.3h-4h-4h-4h-4h-0.4c-0.2,0-0.3,0-0.4-0.1c-0.1,0-0.2-0.1-0.3-0.2
						c-0.1,0-0.1-0.1-0.2-0.2c-0.1-0.1-0.1-0.2-0.2-0.5c-0.1-0.2-0.1-0.5-0.2-0.8c0-0.3-0.1-0.8-0.1-1.4c-0.2-2.3-1.2-3.4-3.1-3.4
						c-0.5,0-0.9,0.1-1.3,0.2c-0.4,0.2-0.7,0.3-1,0.5l0.7,0.9c0.5-0.4,1.1-0.5,1.6-0.5c0.2,0,0.4,0,0.7,0.1s0.4,0.1,0.6,0.3
						c0.2,0.2,0.4,0.4,0.5,0.7c0.1,0.3,0.2,0.7,0.3,1.3c0,0.7,0.1,1.4,0.2,1.8s0.2,0.9,0.3,1.2h-5.8h0h-4h-4h-4h-4H5.6
						c-0.2,0-0.3-0.1-0.3-0.3v-6.5c-0.4,0.1-0.9,0.3-1.5,0.5c-0.6,0.2-1.2,0.6-1.8,1c-0.6,0.4-1.1,0.9-1.5,1.5
						C0.2,25.9,0,26.6,0,27.4c0,0.3,0,0.6,0.1,1c0.1,0.3,0.3,0.6,0.5,0.9c0.3,0.3,0.6,0.5,1.1,0.7c0.5,0.2,1.1,0.3,1.8,0.4l0.1-1.1
						c-0.9-0.1-1.5-0.2-1.9-0.5c-0.4-0.3-0.6-0.7-0.6-1.4c0-0.5,0.1-0.9,0.3-1.3c0.2-0.4,0.5-0.7,0.8-1c0.3-0.3,0.6-0.5,1-0.7
						c0.4-0.2,0.7-0.4,0.9-0.5l0,4.8c0,0.5,0.1,0.8,0.3,1.1c0.2,0.3,0.5,0.4,0.9,0.4h0.9h4h4h4h4h0h8.1h4h4h4h4h11.7v0c0,0,0,0,0,0
						h4h4h0h4h2.1V18.6H70.7z M55.7,29.1h-7c0.1-0.3,0.3-0.7,0.5-1.3c0.2-0.5,0.6-1.1,1.2-1.6c0.5-0.5,1.2-1,2.1-1.4
						c0.9-0.4,1.9-0.7,3.3-0.8V29.1z"/>
				</g>
				<path d="M73.6,18.7h1.1v11.5h-1.1V18.7z"/>
				<path d="M85.1,30.2h-1.2c-0.4,0-0.8-0.1-1.3-0.2s-0.9-0.3-1.3-0.5c-0.4-0.2-0.8-0.5-1.1-0.9c-0.3-0.4-0.4-0.9-0.4-1.4
					c0-0.5,0.1-1,0.3-1.4c0.2-0.4,0.5-0.8,0.8-1.2c0.3-0.3,0.7-0.6,1.1-0.9c0.4-0.3,0.8-0.5,1.2-0.7c0.4-0.2,0.8-0.3,1.1-0.4
					c0.3-0.1,0.6-0.2,0.8-0.2V30.2z M84,29v-5.1c-0.3,0.1-0.6,0.3-0.9,0.5c-0.4,0.2-0.7,0.4-1,0.7c-0.3,0.3-0.6,0.6-0.8,0.9
					c-0.2,0.4-0.3,0.7-0.3,1.2c0,0.3,0.1,0.6,0.3,0.9c0.2,0.2,0.4,0.4,0.7,0.6c0.3,0.1,0.6,0.3,0.9,0.3c0.3,0.1,0.7,0.1,0.9,0.1H84z
					 M82.8,20.4c0,0.2-0.1,0.4-0.2,0.5c-0.1,0.1-0.3,0.2-0.5,0.2s-0.4-0.1-0.5-0.2s-0.2-0.3-0.2-0.5c0-0.2,0.1-0.4,0.2-0.5
					s0.3-0.2,0.5-0.2s0.4,0.1,0.5,0.2C82.7,20.1,82.8,20.2,82.8,20.4z M85.3,20.4c0,0.2-0.1,0.4-0.2,0.5s-0.3,0.2-0.5,0.2
					c-0.2,0-0.4-0.1-0.5-0.2s-0.2-0.3-0.2-0.5c0-0.2,0.1-0.4,0.2-0.5s0.3-0.2,0.5-0.2c0.2,0,0.4,0.1,0.5,0.2S85.3,20.2,85.3,20.4z"
					/>
				<g>
					<path d="M122.5,21.6c-0.2-0.1-0.3-0.3-0.3-0.6c0-0.2,0.1-0.3,0.2-0.4s0.3-0.1,0.5-0.1c0.3,0,0.6,0.1,0.9,0.2l0.2-0.6
						c-0.4-0.2-0.8-0.2-1.2-0.2c-0.3,0-0.6,0.1-0.8,0.2s-0.4,0.4-0.4,0.8c0,0.2,0,0.3,0.1,0.5s0.1,0.3,0.2,0.3H121v0.6h2.9v-0.6
						h-0.5C123,21.8,122.8,21.8,122.5,21.6z"/>
					<path d="M122.4,29.1h-2.2h-4h-4h0H109h-4h-4h-4h-4h-4h0h-1v-5.6h-1.1v7.3c0,0.4,0,0.8,0,1.1c0,0.4-0.1,0.7-0.2,1
						c-0.1,0.3-0.3,0.5-0.6,0.7c-0.2,0.2-0.6,0.3-1,0.3V35c0.7,0,1.2-0.1,1.6-0.4c0.4-0.3,0.7-0.6,0.9-1c0.2-0.4,0.3-0.9,0.4-1.4
						c0.1-0.5,0.1-1,0.1-1.5v-0.5h1h0h4h4h4h4h4h3.2h0h4h4h3.3v-6.8h-1.1V29.1z"/>
				</g>
				<path d="M125.3,18.7h1.1v11.5h-1.1V18.7z"/>
				<path d="M128,23.7c0.3-0.2,0.7-0.5,1.1-0.7c0.5-0.2,1-0.3,1.6-0.3c0.6,0,1.1,0.1,1.5,0.4c0.4,0.2,0.8,0.6,1.1,1
					c0.3,0.4,0.5,0.8,0.6,1.4c0.1,0.5,0.2,1,0.2,1.6c0,0.4,0,0.8-0.1,1.1c-0.1,0.4-0.1,0.7-0.2,1c-0.1,0.3-0.2,0.5-0.3,0.8
					c-0.1,0.2-0.2,0.4-0.2,0.5h-5.5v-1.1h4.7c0.1-0.2,0.2-0.5,0.3-0.9c0.1-0.4,0.2-0.8,0.2-1.3c0-0.4-0.1-0.8-0.2-1.2
					c-0.1-0.4-0.3-0.7-0.5-1s-0.4-0.5-0.7-0.7c-0.3-0.2-0.6-0.3-1-0.3c-0.3,0-0.6,0.1-0.9,0.2c-0.3,0.1-0.7,0.3-1.1,0.6L128,23.7z"
					/>
			</g>
		</g>
	</g>
</g>
</svg>
